<svg width="24" height="24" viewBox="0 0 24 24" fill="none" xmlns="http://www.w3.org/2000/svg">
<path d="M7.45344 22C6.9414 22 6.50307 21.8042 6.13844 21.4125C5.77381 21.0208 5.5915 20.55 5.5915 20C5.5915 19.45 5.77381 18.9792 6.13844 18.5875C6.50307 18.1958 6.9414 18 7.45344 18C7.96547 18 8.4038 18.1958 8.76843 18.5875C9.13306 18.9792 9.31538 19.45 9.31538 20C9.31538 20.55 9.13306 21.0208 8.76843 21.4125C8.4038 21.8042 7.96547 22 7.45344 22ZM16.7631 22C16.2511 22 15.8128 21.8042 15.4481 21.4125C15.0835 21.0208 14.9012 20.55 14.9012 20C14.9012 19.45 15.0835 18.9792 15.4481 18.5875C15.8128 18.1958 16.2511 18 16.7631 18C17.2752 18 17.7135 18.1958 18.0781 18.5875C18.4428 18.9792 18.6251 19.45 18.6251 20C18.6251 20.55 18.4428 21.0208 18.0781 21.4125C17.7135 21.8042 17.2752 22 16.7631 22ZM6.66211 6L8.89644 11H15.4132L17.9734 6H6.66211ZM5.77769 4H19.5095C19.8664 4 20.1379 4.17083 20.3241 4.5125C20.5103 4.85417 20.518 5.2 20.3474 5.55L17.0424 11.95C16.8717 12.2833 16.6429 12.5417 16.3558 12.725C16.0688 12.9083 15.7546 13 15.4132 13H8.4775L7.45344 15H18.6251V17H7.45344C6.75521 17 6.22766 16.6708 5.87079 16.0125C5.51391 15.3542 5.4984 14.7 5.82424 14.05L7.08105 11.6L3.72955 4H1.86761V2H4.89327L5.77769 4Z" fill="#A07EE7"/>
</svg>
